<svg xmlns="http://www.w3.org/2000/svg" width="214.455" height="250.9">
  <g data-name="Group 3670">
    <g data-name="Group 3669">
      <g data-name="Group 3545" opacity=".3" transform="translate(-92.772 772.45)">
        <ellipse data-name="Ellipse 95" cx="67.646" cy="12.962" rx="67.646" ry="12.962" transform="translate(130.239 -547.474)" fill="#371a45"/>
      </g>
      <g data-name="Group 3668">
        <g data-name="Group 3551">
          <g data-name="Group 3546">
            <path data-name="Path 1805" d="M107.365 238.817c-65.736 0-72.708-36.947-68.937-64.129a112.811 112.811 0 0 1 6.248-24.026c1.041-2.735 1.774-4.311 1.774-4.311s9.137-14.84 60.915-14.84 60.915 14.84 60.915 14.84.733 1.576 1.774 4.311c6.963 18.243 27.739 88.155-62.689 88.155Z" fill="#6fa3d2"/>
          </g>
          <g data-name="Group 3547">
            <path data-name="Path 1806" d="M107.365 128.49c43.252 0 50.887 13.542 50.887 13.542s35.984 84.365-50.887 84.365-50.887-84.365-50.887-84.365 7.634-13.542 50.887-13.542Z" fill="#fff"/>
          </g>
          <g data-name="Group 3548" opacity=".3">
            <path data-name="Path 1807" d="M176.301 174.688c-4.1 10.967-15.617 33.6-38.018 22.2.189.259 7.767 10.458 22.045 5.576 0 0-1.655 27.133-52.963 27.133s-52.964-27.133-52.964-27.133c14.278 4.882 21.856-5.317 22.045-5.576-22.4 11.4-33.917-11.232-38.018-22.2-3.771 27.182 3.2 64.129 68.937 64.129s72.708-36.947 68.936-64.129Z" fill="#371a45"/>
          </g>
          <g data-name="Group 3549" opacity=".3">
            <path data-name="Path 1808" d="M123.516 195.161c-4.234-1.035-16.151-.941-16.151-.941s-11.918-.094-16.151.941l-3.572 13.925s6.608-1.048 8.015-7.448a3.86 3.86 0 0 1 3.45-2.985c1.769-.157 4.412-.293 8.258-.293s6.489.136 8.257.293a3.861 3.861 0 0 1 3.451 2.985c1.407 6.4 8.015 7.448 8.015 7.448Z" fill="#371a45"/>
          </g>
          <g data-name="Group 3550">
            <path data-name="Path 1809" d="M107.365 240.792c-31.735 0-53.276-8.552-64.024-25.419-7.413-11.631-9.523-27.426-6.1-45.677a111.186 111.186 0 0 1 7.419-24.178 1.944 1.944 0 0 1 .108-.2c.4-.645 10.32-15.782 62.6-15.782s62.2 15.137 62.6 15.782a2.162 2.162 0 0 1 .108.2 111.281 111.281 0 0 1 7.418 24.178c3.421 18.251 1.311 34.046-6.1 45.677-10.754 16.867-32.295 25.419-64.029 25.419Zm-59.194-93.456c-1.209 2.7-17.647 40.6-1.491 65.925 9.979 15.646 30.4 23.579 60.685 23.579s50.715-7.937 60.692-23.59c16.183-25.392-.33-63.312-1.5-65.923-.762-1.008-11.438-13.84-59.19-13.84-47.549 0-58.339 12.722-59.196 13.849Z" fill="#371a45"/>
          </g>
        </g>
        <g data-name="Group 3595">
          <g data-name="Group 3554">
            <g data-name="Group 3552">
              <path data-name="Path 1810" d="M107.365 188.481h37.32a23.975 23.975 0 0 0-10.576-11.754 11.775 11.775 0 0 0-3.8-1.376c-4.127-.743-13.856-2.03-18.132 1.37h-9.628c-4.277-3.4-14.005-2.113-18.132-1.37a11.789 11.789 0 0 0-3.8 1.376 23.976 23.976 0 0 0-10.575 11.754Z" fill="#e8e8ef"/>
            </g>
            <g data-name="Group 3553">
              <path data-name="Path 1811" d="M144.685 190.018h-74.64a1.538 1.538 0 0 1-1.248-.64 1.535 1.535 0 0 1-.208-1.388c.1-.309 2.654-7.635 11.264-12.595a13.286 13.286 0 0 1 4.294-1.556c5.085-.916 14.154-1.92 18.908 1.345h8.62c4.754-3.265 13.822-2.262 18.908-1.345a13.294 13.294 0 0 1 4.294 1.556c8.609 4.96 11.16 12.286 11.264 12.595a1.541 1.541 0 0 1-.208 1.388 1.539 1.539 0 0 1-1.248.64Zm-72.214-3.074h69.787a23.871 23.871 0 0 0-8.915-8.885 10.223 10.223 0 0 0-3.305-1.2c-7.949-1.431-14.267-1.035-16.9 1.061a1.537 1.537 0 0 1-.956.333h-9.628a1.537 1.537 0 0 1-.956-.333c-2.636-2.095-8.955-2.492-16.9-1.061a10.226 10.226 0 0 0-3.3 1.2 23.862 23.862 0 0 0-8.927 8.885Z" fill="#371a45"/>
            </g>
          </g>
          <g data-name="Group 3564">
            <g data-name="Group 3555">
              <path data-name="Path 1812" d="M107.365 194.22a147.087 147.087 0 0 1 16.151.941s-2.446 14.026 9.973 13.925c12.826-.1 11.2-20.6 11.2-20.6-16.089-2.446-37.32-2.446-37.32-2.446s-21.232 0-37.32 2.446c0 0-1.63 20.5 11.2 20.6 12.419.1 9.973-13.925 9.973-13.925a147.088 147.088 0 0 1 16.143-.941Z" fill="#e8e8ef"/>
            </g>
            <g data-name="Group 3558">
              <g data-name="Group 3556" opacity=".3">
                <path data-name="Path 1813" d="m123.378 195.144.005-.073a4.546 4.546 0 0 0-4.2-4.866c-3.319-.234-7.769-.48-11.819-.48-4.035 0-8.646.167-12.135.327a4.522 4.522 0 0 0-4.3 4.99c.392 3.66-.483 8.113-7.076 8.059-8.374-.068-9.9-9.8-10.106-15.131-1.258.157-2.5.327-3.707.511 0 0-1.63 20.5 11.2 20.6 12.419.1 9.973-13.925 9.973-13.925a147.088 147.088 0 0 1 16.151-.941 148.21 148.21 0 0 1 16.014.929Z" fill="#371a45"/>
              </g>
              <g data-name="Group 3557" opacity=".3">
                <path data-name="Path 1814" d="M144.685 188.481c-1.21-.184-2.45-.354-3.707-.511-.207 5.335-1.732 15.063-10.106 15.131-5.809.048-7.355-3.325-7.5-6.576-.242 3.519.094 12.643 10.121 12.561 12.822-.105 11.192-20.605 11.192-20.605Z" fill="#371a45"/>
              </g>
            </g>
            <g data-name="Group 3559">
              <path data-name="Path 1815" d="m71.086 199.735 11.323-.615a2.958 2.958 0 0 1 2.914 1.865 9.2 9.2 0 0 1-.267 7.588s-10.789 3.944-13.97-8.838Z" fill="#371a45"/>
            </g>
            <g data-name="Group 3560">
              <path data-name="Path 1816" d="M84.857 186.899a11.788 11.788 0 0 1 .482 4.675 3.307 3.307 0 0 1-3.137 3.061l-11.968.6-.189-6.749Z" fill="#371a45"/>
            </g>
            <g data-name="Group 3561">
              <path data-name="Path 1817" d="m143.644 199.735-11.323-.615a2.958 2.958 0 0 0-2.914 1.865 9.2 9.2 0 0 0 .267 7.588s10.789 3.944 13.97-8.838Z" fill="#371a45"/>
            </g>
            <g data-name="Group 3562">
              <path data-name="Path 1818" d="M129.872 186.899a11.811 11.811 0 0 0-.482 4.675 3.309 3.309 0 0 0 3.137 3.061l11.968.6.19-6.749Z" fill="#371a45"/>
            </g>
            <g data-name="Group 3563">
              <path data-name="Path 1819" d="M81.375 210.623h-.147a10.582 10.582 0 0 1-8.033-3.482c-5.618-6.132-4.723-18.267-4.682-18.781a1.535 1.535 0 0 1 1.3-1.4c16.018-2.435 37.337-2.464 37.551-2.464s21.533.029 37.551 2.464a1.537 1.537 0 0 1 1.3 1.4c.041.514.935 12.649-4.682 18.781a10.584 10.584 0 0 1-8.034 3.482h-.147c-3.78 0-6.715-1.2-8.724-3.572-2.824-3.332-2.962-8.066-2.8-10.53-2.609-.267-8.293-.764-14.461-.764s-11.853.5-14.461.764c.158 2.464.02 7.2-2.8 10.53-2.015 2.371-4.951 3.572-8.731 3.572Zm25.99-17.94a150.316 150.316 0 0 1 16.341.953 1.537 1.537 0 0 1 1.045.611 1.539 1.539 0 0 1 .279 1.178c-.01.059-1.012 6.164 1.952 9.648 1.418 1.666 3.6 2.506 6.494 2.476a7.523 7.523 0 0 0 5.789-2.481c3.792-4.134 4.005-12.194 3.938-15.251-15.624-2.218-35.632-2.245-35.838-2.245s-20.214.027-35.839 2.245c-.067 3.056.147 11.116 3.939 15.251a7.521 7.521 0 0 0 5.788 2.481c2.885.028 5.077-.809 6.5-2.476 2.964-3.484 1.962-9.589 1.952-9.65a1.54 1.54 0 0 1 .28-1.177 1.542 1.542 0 0 1 1.044-.61 150.316 150.316 0 0 1 16.336-.953Z" fill="#371a45"/>
            </g>
          </g>
          <g data-name="Group 3577">
            <g data-name="Group 3567">
              <g data-name="Group 3565" transform="translate(-92.772 772.45)">
                <ellipse data-name="Ellipse 96" cx="2.124" cy="1.4" rx="2.124" ry="1.4" transform="rotate(-9.827 -3356.615 -1357.013)" fill="#0fc3ed"/>
              </g>
              <g data-name="Group 3566">
                <path data-name="Path 1820" d="M91.614 182.658a3.11 3.11 0 0 1-1.233-.241 1.776 1.776 0 0 1-1.11-1.289 1.776 1.776 0 0 1 .612-1.586 3.316 3.316 0 0 1 1.7-.8c1.479-.258 2.793.39 2.981 1.473.187 1.084-.828 2.134-2.312 2.391a3.739 3.739 0 0 1-.638.052Zm.6-2.853a2.565 2.565 0 0 0-.443.039 2.221 2.221 0 0 0-1.121.516.694.694 0 0 0-.275.576.69.69 0 0 0 .453.451 2.221 2.221 0 0 0 1.23.109c.881-.152 1.464-.7 1.4-1.093-.058-.322-.568-.598-1.242-.598Z" fill="#371a45"/>
              </g>
            </g>
            <g data-name="Group 3570">
              <g data-name="Group 3568" transform="translate(-92.772 772.45)">
                <ellipse data-name="Ellipse 97" cx="2.124" cy="1.4" rx="2.124" ry="1.4" transform="rotate(-9.827 -3344.435 -1326.594)" fill="#0fc3ed"/>
              </g>
              <g data-name="Group 3569">
                <path data-name="Path 1821" d="M86.602 185.183a3.113 3.113 0 0 1-1.233-.241 1.78 1.78 0 0 1-1.111-1.288 1.779 1.779 0 0 1 .613-1.587 3.316 3.316 0 0 1 1.7-.8c1.487-.259 2.794.39 2.981 1.474.188 1.084-.828 2.134-2.311 2.391a3.742 3.742 0 0 1-.639.051Zm.6-2.853a2.556 2.556 0 0 0-.443.039 2.221 2.221 0 0 0-1.121.516.7.7 0 0 0-.275.577.7.7 0 0 0 .452.451 2.225 2.225 0 0 0 1.231.108c.881-.152 1.463-.7 1.4-1.092-.058-.323-.569-.599-1.242-.599Z" fill="#371a45"/>
              </g>
            </g>
            <g data-name="Group 3573">
              <g data-name="Group 3571" transform="translate(-92.772 772.45)">
                <ellipse data-name="Ellipse 98" cx="2.124" cy="1.4" rx="2.124" ry="1.4" transform="rotate(-9.827 -3362.554 -1306.186)" fill="#0fc3ed"/>
              </g>
              <g data-name="Group 3572">
                <path data-name="Path 1822" d="M82.847 182.391a2.175 2.175 0 0 1-2.339-1.53c-.187-1.084.828-2.134 2.312-2.391a3.329 3.329 0 0 1 1.87.186 1.775 1.775 0 0 1 1.11 1.288 1.774 1.774 0 0 1-.612 1.586 3.322 3.322 0 0 1-1.7.8 3.781 3.781 0 0 1-.641.061Zm.608-2.854a2.6 2.6 0 0 0-.444.039c-.881.153-1.464.7-1.4 1.093s.8.712 1.683.559a2.221 2.221 0 0 0 1.121-.516.7.7 0 0 0 .275-.577.693.693 0 0 0-.453-.45 2 2 0 0 0-.782-.148Z" fill="#371a45"/>
              </g>
            </g>
            <g data-name="Group 3576">
              <g data-name="Group 3574" transform="translate(-92.772 772.45)">
                <ellipse data-name="Ellipse 99" cx="2.124" cy="1.4" rx="2.124" ry="1.4" transform="rotate(-9.827 -3374.455 -1335.96)" fill="#0fc3ed"/>
              </g>
              <g data-name="Group 3575">
                <path data-name="Path 1823" d="M87.753 179.923a2.173 2.173 0 0 1-2.337-1.53 1.776 1.776 0 0 1 .612-1.587 3.323 3.323 0 0 1 1.7-.8c1.485-.259 2.793.39 2.981 1.474a1.777 1.777 0 0 1-.613 1.586 3.321 3.321 0 0 1-1.7.8 3.758 3.758 0 0 1-.643.057Zm.609-2.854a2.534 2.534 0 0 0-.443.039 2.22 2.22 0 0 0-1.122.516.694.694 0 0 0-.275.577c.068.39.8.712 1.682.559a2.221 2.221 0 0 0 1.122-.516.693.693 0 0 0 .275-.576c-.055-.318-.567-.599-1.239-.599Z" fill="#371a45"/>
              </g>
            </g>
          </g>
          <g data-name="Group 3580">
            <g data-name="Group 3578">
              <path data-name="Path 1824" d="M107.365 186.035c6.194 0 10.675.229 10.675.229l-2.639-3.248a4.153 4.153 0 0 0-3.223-1.534h-9.626a4.15 4.15 0 0 0-3.223 1.534l-2.639 3.248s4.481-.229 10.675-.229Z" fill="#0fc3ed"/>
            </g>
            <g data-name="Group 3579">
              <path data-name="Path 1825" d="M96.689 187.362a1.1 1.1 0 0 1-.978-.6 1.1 1.1 0 0 1 .127-1.189l2.639-3.248a5.226 5.226 0 0 1 4.075-1.94h9.626a5.229 5.229 0 0 1 4.075 1.94l2.639 3.248a1.1 1.1 0 0 1 .127 1.189 1.112 1.112 0 0 1-1.035.6c-.045 0-4.528-.228-10.619-.228s-10.575.225-10.619.228Zm10.676-2.425c3.435 0 6.366.071 8.292.135l-1.108-1.364a3.043 3.043 0 0 0-2.371-1.129h-9.626a3.041 3.041 0 0 0-2.371 1.129l-1.108 1.364c1.926-.064 4.855-.135 8.292-.135Z" fill="#371a45"/>
            </g>
          </g>
          <g data-name="Group 3585">
            <g data-name="Group 3581">
              <path data-name="Path 1826" d="m132.437 184.385-1.116-2.093a.377.377 0 0 0-.168-.16l-1.478-.7a.371.371 0 0 0-.325.006l-.884.453a.368.368 0 0 0-.153.507l1.238 2.216a.368.368 0 0 0 .3.188l2.24.12a.368.368 0 0 0 .346-.537Z" fill="#371a45"/>
            </g>
            <g data-name="Group 3582">
              <path data-name="Path 1827" d="m125.663 177.607 1.117 2.093a.367.367 0 0 0 .168.16l1.478.7a.365.365 0 0 0 .324-.005l.884-.453a.367.367 0 0 0 .154-.507l-1.238-2.216a.371.371 0 0 0-.3-.188l-2.24-.12a.368.368 0 0 0-.347.536Z" fill="#371a45"/>
            </g>
            <g data-name="Group 3583">
              <path data-name="Path 1828" d="m123.602 179.799 2.371-.061a.373.373 0 0 1 .222.067l1.334.943a.368.368 0 0 1 .156.285l.042.992a.368.368 0 0 1-.366.384l-2.538.016a.371.371 0 0 1-.312-.17l-1.21-1.89a.368.368 0 0 1 .301-.566Z" fill="#371a45"/>
            </g>
            <g data-name="Group 3584">
              <path data-name="Path 1829" d="m134.297 182.35-2.371-.067a.368.368 0 0 1-.218-.079l-1.282-1.012a.367.367 0 0 1-.139-.293l.011-.994a.367.367 0 0 1 .385-.363l2.536.12a.366.366 0 0 1 .3.186l1.107 1.952a.369.369 0 0 1-.329.55Z" fill="#371a45"/>
            </g>
          </g>
          <g data-name="Group 3592">
            <g data-name="Group 3586" transform="translate(-92.772 772.45)">
              <ellipse data-name="Ellipse 100" cx="3.928" cy="1.75" rx="3.928" ry="1.75" transform="translate(186.949 -596.567)" fill="#371a45"/>
            </g>
            <g data-name="Group 3587">
              <path data-name="Line 29" fill="#371a45" d="M98.105 175.877v-3.39"/>
            </g>
            <g data-name="Group 3588">
              <path data-name="Path 1830" d="M102.904 171.85v-.008c-.005-.024-.015-.047-.022-.07l-.381-1.2c-.193-1.006-2.084-1.8-4.392-1.8s-4.2.791-4.391 1.8l-.382 1.2c-.006.023-.016.046-.021.069v.008a.932.932 0 0 0-.023.2c0 1.187 2.158 2.149 4.821 2.149s4.822-.962 4.822-2.149a1 1 0 0 0-.031-.199Z" fill="#371a45"/>
            </g>
            <g data-name="Group 3589" transform="translate(-92.772 772.45)">
              <ellipse data-name="Ellipse 101" cx="3.928" cy="1.75" rx="3.928" ry="1.75" transform="translate(205.468 -596.567)" fill="#371a45"/>
            </g>
            <g data-name="Group 3590">
              <path data-name="Line 30" fill="#371a45" d="M116.624 175.877v-3.39"/>
            </g>
            <g data-name="Group 3591">
              <path data-name="Path 1831" d="M111.828 171.85v-.008c.006-.024.016-.047.023-.07l.381-1.2c.192-1.006 2.083-1.8 4.391-1.8s4.2.791 4.391 1.8l.381 1.2c.007.023.017.046.022.069v.008a1 1 0 0 1 .023.2c0 1.187-2.159 2.149-4.822 2.149s-4.822-.962-4.822-2.149a.932.932 0 0 1 .032-.199Z" fill="#371a45"/>
            </g>
          </g>
          <g data-name="Group 3593" opacity=".3">
            <path data-name="Path 1832" d="M76.987 181.081s14.973 14.521-3.794 23.05a26.341 26.341 0 0 1 3.794-23.05Z" fill="#371a45"/>
          </g>
          <g data-name="Group 3594" opacity=".3">
            <path data-name="Path 1833" d="M137.743 181.081s-14.973 14.521 3.794 23.05a26.341 26.341 0 0 0-3.794-23.05Z" fill="#371a45"/>
          </g>
        </g>
        <g data-name="Group 3602">
          <g data-name="Group 3596">
            <path data-name="Path 1834" d="M79.501 242.166a9.592 9.592 0 0 0 11.957-10.023c-.9-11.842-3.1-27.86-8.491-29.825-8.665-3.162-9.774 8.192-9.774 8.192a21.682 21.682 0 0 0-8.6-5.961 5.581 5.581 0 0 0-7.572 6.347 21.693 21.693 0 0 0 4.368 9.507s-11.374-.892-9.774 8.193c.997 5.647 16.383 10.617 27.886 13.57Z" fill="#f4c968"/>
          </g>
          <g data-name="Group 3597" opacity=".7">
            <path data-name="Path 1835" d="M57.478 212.712a5.582 5.582 0 0 1 7.614-4.189 21.675 21.675 0 0 1 8.6 5.962s1.108-11.355 9.774-8.193c3.869 1.412 6.1 10.074 7.378 19.23-1.17-10.48-3.448-21.589-7.875-23.2-8.665-3.162-9.774 8.192-9.774 8.192a21.682 21.682 0 0 0-8.6-5.961 5.581 5.581 0 0 0-7.572 6.347c.125.589.281 1.198.455 1.812Z" fill="#fff"/>
          </g>
          <g data-name="Group 3598" opacity=".3">
            <path data-name="Path 1836" d="M91.458 232.143c-.88-11.606-3.02-27.216-8.176-29.682 3.827 3.678 5.493 16.187 6.214 25.686a8.545 8.545 0 0 1-10.652 8.929c-10.248-2.631-23.956-7.059-24.842-12.09a7 7 0 0 1 .054-3.005c-1.791 1.17-3.044 3.177-2.439 6.615.995 5.647 16.381 10.617 27.884 13.57a9.592 9.592 0 0 0 11.957-10.023Z" fill="#371a45"/>
          </g>
          <g data-name="Group 3599">
            <path data-name="Path 1837" d="M81.942 244.45a11.774 11.774 0 0 1-2.932-.375 128.772 128.772 0 0 1-18.17-5.872c-7.037-3.015-10.586-5.96-11.168-9.269-.655-3.719.588-6.02 1.746-7.3a10.7 10.7 0 0 1 6.345-3.036 25.5 25.5 0 0 1-2.673-7.3 7.476 7.476 0 0 1 2.533-7.381 7.472 7.472 0 0 1 7.71-1.2 25.48 25.48 0 0 1 6.724 3.907 10.7 10.7 0 0 1 4.1-5.717c1.457-.917 3.94-1.741 7.488-.445 3.156 1.151 5.436 5.16 7.176 12.616a129.052 129.052 0 0 1 2.609 18.915 11.451 11.451 0 0 1-4.1 9.75 11.442 11.442 0 0 1-7.388 2.707Zm-21.4-22.1c-1.68 0-4.744.339-6.205 1.956a4.433 4.433 0 0 0-.775 3.947c.465 2.64 7.653 7.179 26.43 12a7.541 7.541 0 0 0 6.794-1.538 7.539 7.539 0 0 0 2.7-6.421c-1.467-19.331-4.68-27.2-7.2-28.119a4.433 4.433 0 0 0-4.022.073c-2.145 1.343-2.972 5.119-3.109 6.46a1.979 1.979 0 0 1-1.386 1.69 1.974 1.974 0 0 1-2.094-.618 19.521 19.521 0 0 0-7.823-5.4 3.577 3.577 0 0 0-3.7.568 3.579 3.579 0 0 0-1.2 3.538 19.5 19.5 0 0 0 3.949 8.646 1.977 1.977 0 0 1 .242 2.174 1.973 1.973 0 0 1-1.911 1.065 10.649 10.649 0 0 0-.689-.021Z" fill="#371a45"/>
          </g>
          <g data-name="Group 3600">
            <path data-name="Path 1838" d="M62.468 218.75a16.042 16.042 0 0 1 1.922 1.5c.615.54 1.2 1.13 1.783 1.717a49.747 49.747 0 0 1 3.369 3.735 49.493 49.493 0 0 1-4.782-1.563c-.774-.3-1.549-.588-2.293-.931a16.335 16.335 0 0 1-2.152-1.147 1.977 1.977 0 0 1-.567-2.737 1.977 1.977 0 0 1 2.72-.574Z" fill="#371a45"/>
          </g>
          <g data-name="Group 3601">
            <path data-name="Path 1839" d="M75.012 209.739a16.129 16.129 0 0 1 .754 2.321c.208.791.36 1.607.516 2.42a49.633 49.633 0 0 1 .705 4.981 49.365 49.365 0 0 1-3.09-3.97c-.476-.678-.955-1.355-1.38-2.055a16.181 16.181 0 0 1-1.143-2.155 1.976 1.976 0 0 1 1.061-2.585 1.977 1.977 0 0 1 2.577 1.043Z" fill="#371a45"/>
          </g>
        </g>
        <g data-name="Group 3609">
          <g data-name="Group 3603">
            <path data-name="Path 1840" d="M135.228 242.166a9.592 9.592 0 0 1-11.957-10.023c.9-11.842 3.1-27.86 8.491-29.825 8.666-3.162 9.774 8.192 9.774 8.192a21.692 21.692 0 0 1 8.6-5.961 5.581 5.581 0 0 1 7.571 6.347 21.671 21.671 0 0 1-4.368 9.507s11.374-.892 9.774 8.193c-.995 5.647-16.385 10.617-27.885 13.57Z" fill="#f4c968"/>
          </g>
          <g data-name="Group 3604" opacity=".7">
            <path data-name="Path 1841" d="M157.252 212.712a5.582 5.582 0 0 0-7.614-4.189 21.675 21.675 0 0 0-8.6 5.962s-1.109-11.355-9.774-8.193c-3.869 1.412-6.1 10.074-7.379 19.23 1.17-10.48 3.448-21.589 7.875-23.2 8.666-3.162 9.774 8.192 9.774 8.192a21.692 21.692 0 0 1 8.6-5.961 5.581 5.581 0 0 1 7.571 6.347 26.202 26.202 0 0 1-.453 1.812Z" fill="#fff"/>
          </g>
          <g data-name="Group 3605" opacity=".3">
            <path data-name="Path 1842" d="M123.271 232.143c.881-11.606 3.02-27.216 8.176-29.682-3.826 3.678-5.493 16.187-6.214 25.686a8.546 8.546 0 0 0 10.653 8.929c10.248-2.631 23.955-7.059 24.841-12.09a6.984 6.984 0 0 0-.053-3.005c1.791 1.17 3.044 3.177 2.438 6.615-.994 5.647-16.381 10.617-27.884 13.57a9.592 9.592 0 0 1-11.957-10.023Z" fill="#371a45"/>
          </g>
          <g data-name="Group 3606">
            <path data-name="Path 1843" d="M132.787 244.45a11.44 11.44 0 0 1-7.383-2.711 11.453 11.453 0 0 1-4.1-9.75 128.935 128.935 0 0 1 2.609-18.915c1.74-7.456 4.02-11.465 7.175-12.616 3.549-1.3 6.031-.472 7.489.445a10.691 10.691 0 0 1 4.1 5.717 25.471 25.471 0 0 1 6.725-3.907 7.475 7.475 0 0 1 7.71 1.2 7.476 7.476 0 0 1 2.533 7.381 25.524 25.524 0 0 1-2.673 7.3 10.688 10.688 0 0 1 6.345 3.036c1.158 1.276 2.4 3.577 1.746 7.3-.583 3.309-4.131 6.254-11.169 9.269a128.71 128.71 0 0 1-18.169 5.872 11.782 11.782 0 0 1-2.938.379Zm1.817-40.717a6.356 6.356 0 0 0-2.164.437c-2.518.919-5.732 8.788-7.2 28.119a7.54 7.54 0 0 0 2.7 6.421 7.544 7.544 0 0 0 6.794 1.538c18.777-4.82 25.964-9.359 26.429-12a4.425 4.425 0 0 0-.779-3.953c-1.708-1.88-5.646-2.025-6.894-1.927a1.978 1.978 0 0 1-1.911-1.065 1.977 1.977 0 0 1 .242-2.174 19.516 19.516 0 0 0 3.949-8.646 3.58 3.58 0 0 0-1.205-3.539 3.578 3.578 0 0 0-3.695-.567 19.531 19.531 0 0 0-7.823 5.4 1.973 1.973 0 0 1-2.1.619 1.977 1.977 0 0 1-1.382-1.7c-.137-1.336-.963-5.112-3.108-6.455a3.419 3.419 0 0 0-1.853-.504Z" fill="#371a45"/>
          </g>
          <g data-name="Group 3607">
            <path data-name="Path 1844" d="M154.415 222.06a16.284 16.284 0 0 1-2.153 1.147c-.743.343-1.519.635-2.293.931a49.473 49.473 0 0 1-4.781 1.563 49.313 49.313 0 0 1 3.369-3.735c.585-.587 1.167-1.177 1.782-1.717a16.122 16.122 0 0 1 1.922-1.5 1.975 1.975 0 0 1 2.731.593 1.976 1.976 0 0 1-.577 2.718Z" fill="#371a45"/>
          </g>
          <g data-name="Group 3608">
            <path data-name="Path 1845" d="M143.355 211.281a16.173 16.173 0 0 1-1.142 2.155c-.425.7-.9 1.377-1.38 2.055a49.6 49.6 0 0 1-3.09 3.97 49.344 49.344 0 0 1 .7-4.981c.156-.813.309-1.629.517-2.42a16.129 16.129 0 0 1 .753-2.321 1.976 1.976 0 0 1 2.6-1.035 1.976 1.976 0 0 1 1.042 2.577Z" fill="#371a45"/>
          </g>
        </g>
        <g data-name="Group 3613">
          <g data-name="Group 3610">
            <path data-name="Path 1846" d="M75.28 180.699c-13.7-12.578-16.537-29.468-16.537-29.468l-5.552-1.884-2.113 6.989c-4.418 4.237-9.068 11.544-8.873 23.465.252 15.477 15.4 19.831 21.613 21.312a11.784 11.784 0 0 0 7.651-.718c6.248-2.874 7.793-7.306 7.784-11a11.912 11.912 0 0 0-3.973-8.696Z" fill="#6fa3d2"/>
          </g>
          <g data-name="Group 3611" opacity=".3">
            <path data-name="Path 1847" d="M78.134 194.421s-21.041 6.808-35.031-16.669a.466.466 0 0 0-.868.242c.1 4.319 1.969 16.018 18.491 22.218a14.126 14.126 0 0 0 17.408-5.791Z" fill="#371a45"/>
          </g>
          <g data-name="Group 3612">
            <path data-name="Path 1848" d="M60.692 150.904c.077.405.195.908.308 1.371s.246.947.379 1.42.275.946.424 1.416l.461 1.408c.335.931.649 1.87 1.03 2.784.188.458.359.924.56 1.376l.6 1.357a56 56 0 0 0 5.993 10.2l1.82 2.328 1.961 2.215c.685.7 1.394 1.385 2.089 2.08.309.322.8.755 1.184 1.19a14.75 14.75 0 0 1 1.123 1.381 13.762 13.762 0 0 1 2.535 6.645 14.04 14.04 0 0 1-.126 3.574 12.611 12.611 0 0 1-1.083 3.449 13.581 13.581 0 0 1-4.681 5.272 19.848 19.848 0 0 1-2.962 1.654 13.229 13.229 0 0 1-3.4 1.024 13.693 13.693 0 0 1-3.524.1 13.166 13.166 0 0 1-1.734-.286c-.562-.133-1.054-.277-1.582-.424a34.763 34.763 0 0 1-5.991-2.415 31.421 31.421 0 0 1-5.391-3.587l-1.227-1.064-1.143-1.155a14.272 14.272 0 0 1-1.08-1.211l-.521-.622a6.567 6.567 0 0 1-.5-.64 20.9 20.9 0 0 1-4.272-11.883.271.271 0 0 1 .266-.277.273.273 0 0 1 .243.138l.009.017c.259.46.487.922.713 1.381s.408.927.658 1.369.479.886.708 1.327l.335.664c.12.217.254.426.38.638.259.422.5.85.745 1.273s.547.811.8 1.225l.4.609a5.353 5.353 0 0 0 .421.594c.3.384.588.771.877 1.16a5.356 5.356 0 0 0 .463.558l.483.541a12.1 12.1 0 0 0 1 1.052l1.049 1 1.125.916a28.339 28.339 0 0 0 4.923 3.061 31.369 31.369 0 0 0 5.462 2.01c.464.112.96.242 1.4.336a9.7 9.7 0 0 0 1.3.184 10.11 10.11 0 0 0 2.6-.132 9.555 9.555 0 0 0 2.456-.8 16.047 16.047 0 0 0 2.369-1.391 9.819 9.819 0 0 0 3.325-3.869 8.721 8.721 0 0 0 .716-2.406 10.213 10.213 0 0 0 .055-2.553 9.769 9.769 0 0 0-1.873-4.683 10.567 10.567 0 0 0-.83-.989c-.3-.328-.587-.568-.994-.978-.76-.748-1.533-1.484-2.28-2.245l-2.132-2.382-1.982-2.5a57.6 57.6 0 0 1-6.4-10.978l-.638-1.455c-.212-.486-.393-.984-.591-1.475-.4-.98-.735-1.987-1.087-2.987l-.474-1.52c-.151-.509-.286-1.025-.429-1.537s-.261-1.035-.384-1.558-.229-1.031-.332-1.635a1.976 1.976 0 0 1 1.614-2.28 1.976 1.976 0 0 1 2.273 1.574Z" fill="#371a45"/>
          </g>
        </g>
        <g data-name="Group 3617">
          <g data-name="Group 3614">
            <path data-name="Path 1849" d="M139.45 180.699c13.7-12.578 16.536-29.468 16.536-29.468l5.553-1.884 2.113 6.989c4.418 4.237 9.067 11.544 8.873 23.465-.253 15.477-15.406 19.831-21.614 21.312a11.785 11.785 0 0 1-7.651-.718c-6.247-2.874-7.792-7.306-7.783-11a11.912 11.912 0 0 1 3.973-8.696Z" fill="#6fa3d2"/>
          </g>
          <g data-name="Group 3615" opacity=".3">
            <path data-name="Path 1850" d="M136.595 194.421s21.042 6.808 35.031-16.669a.466.466 0 0 1 .868.242c-.1 4.319-1.968 16.018-18.49 22.218a14.127 14.127 0 0 1-17.409-5.791Z" fill="#371a45"/>
          </g>
          <g data-name="Group 3616">
            <path data-name="Path 1851" d="M157.935 151.557c-.1.6-.213 1.1-.332 1.635s-.249 1.042-.384 1.558-.278 1.028-.43 1.537l-.473 1.52c-.352 1-.685 2.007-1.087 2.987-.2.491-.379.989-.591 1.475l-.638 1.455a57.606 57.606 0 0 1-6.406 10.978l-1.982 2.5-2.131 2.382c-.747.761-1.52 1.5-2.28 2.245-.408.41-.694.65-1 .978a10.556 10.556 0 0 0-.829.989 9.78 9.78 0 0 0-1.874 4.683 10.214 10.214 0 0 0 .056 2.553 8.687 8.687 0 0 0 .716 2.406 9.811 9.811 0 0 0 3.325 3.869 16.047 16.047 0 0 0 2.369 1.391 9.561 9.561 0 0 0 2.455.8 10.118 10.118 0 0 0 2.6.132 9.719 9.719 0 0 0 1.3-.184c.437-.094.933-.224 1.4-.336a31.328 31.328 0 0 0 5.461-2.01 28.263 28.263 0 0 0 4.923-3.061l1.125-.916 1.05-1a12.086 12.086 0 0 0 1-1.052l.484-.541a5.486 5.486 0 0 0 .463-.558c.289-.389.58-.776.877-1.16a5.476 5.476 0 0 0 .42-.594l.4-.609c.255-.414.569-.795.8-1.225s.486-.851.744-1.273c.126-.212.261-.421.38-.638l.336-.664c.229-.441.463-.884.708-1.327s.429-.911.658-1.369.454-.921.713-1.381l.009-.016a.27.27 0 0 1 .37-.1.271.271 0 0 1 .139.242 20.913 20.913 0 0 1-4.272 11.883 6.566 6.566 0 0 1-.5.64l-.521.622a14.277 14.277 0 0 1-1.08 1.211l-1.143 1.155-1.227 1.064a31.421 31.421 0 0 1-5.391 3.587 34.773 34.773 0 0 1-5.992 2.415c-.527.147-1.019.291-1.581.424a13.154 13.154 0 0 1-1.735.286 13.685 13.685 0 0 1-3.523-.1 13.229 13.229 0 0 1-3.4-1.024 19.8 19.8 0 0 1-2.962-1.654 13.583 13.583 0 0 1-4.682-5.272 12.645 12.645 0 0 1-1.083-3.449 14.133 14.133 0 0 1-.126-3.574 13.782 13.782 0 0 1 2.535-6.645 14.761 14.761 0 0 1 1.132-1.377c.384-.435.874-.868 1.184-1.19.695-.7 1.4-1.376 2.089-2.08l1.955-2.211 1.82-2.328a56.051 56.051 0 0 0 5.992-10.2l.6-1.357c.2-.452.372-.918.559-1.376.382-.914.7-1.853 1.031-2.784l.46-1.408c.15-.47.282-.944.425-1.416s.258-.947.378-1.42.231-.966.309-1.371l.009-.05a1.976 1.976 0 0 1 2.311-1.57 1.978 1.978 0 0 1 1.585 2.268Z" fill="#371a45"/>
          </g>
        </g>
        <g data-name="Group 3618" opacity=".3">
          <path data-name="Path 1852" d="M170.054 150.662c-11.833 6.687-31.239 11.57-62.689 11.57s-50.865-4.883-62.689-11.57c1.041-2.735 1.774-4.311 1.774-4.311s9.137-14.84 60.915-14.84 60.915 14.84 60.915 14.84.733 1.576 1.774 4.311Z" fill="#371a45"/>
        </g>
        <g data-name="Group 3622">
          <g data-name="Group 3619">
            <path data-name="Path 1853" d="M107.365 13.297c42.463 0 59.17 24.87 59.17 24.87l8.839-6.988s-17.894-29.2-68.009-29.2-68.009 29.2-68.009 29.2l8.838 6.988s16.708-24.87 59.171-24.87Z" fill="#23235e"/>
          </g>
          <g data-name="Group 3620" opacity=".7">
            <path data-name="Path 1854" d="M107.365 5.488c41.618 0 61.013 20.138 66.394 26.968l1.615-1.277s-17.894-29.2-68.009-29.2-68.009 29.2-68.009 29.2l1.615 1.277c5.381-6.83 24.775-26.968 66.394-26.968Z" fill="#fff"/>
          </g>
          <g data-name="Group 3621">
            <path data-name="Path 1855" d="M166.535 40.143a1.969 1.969 0 0 1-.3-.024 1.979 1.979 0 0 1-1.335-.85c-.038-.057-4.172-6.073-13.286-12-8.407-5.472-22.908-11.994-44.244-11.994s-35.837 6.522-44.245 11.994c-9.113 5.93-13.247 11.946-13.288 12.006a1.979 1.979 0 0 1-1.335.846 1.974 1.974 0 0 1-1.528-.4l-8.838-6.988a1.976 1.976 0 0 1-.46-2.582c.192-.313 4.822-7.749 15.785-15.2C63.488 8.134 80.979.008 107.37.008s43.882 8.126 53.908 14.943c10.964 7.455 15.593 14.891 15.785 15.2a1.975 1.975 0 0 1-.459 2.582l-8.838 6.988a1.981 1.981 0 0 1-1.231.422ZM42.049 30.789l5.8 4.584a57.986 57.986 0 0 1 12.926-11.294c8.879-5.82 24.169-12.758 46.592-12.758s37.713 6.938 46.592 12.758a58.035 58.035 0 0 1 12.926 11.294l5.8-4.585a58.45 58.45 0 0 0-13.821-12.706c-9.549-6.447-26.234-14.131-51.5-14.131C65.289 3.95 46.402 25.05 42.049 30.789Z" fill="#371a45"/>
          </g>
        </g>
        <g data-name="Group 3636">
          <g data-name="Group 3626">
            <g data-name="Group 3623">
              <path data-name="Path 1856" d="M27.091 46.903a32.211 32.211 0 0 1 5.322-10.955 12.887 12.887 0 0 1 13.567-4.817 13.868 13.868 0 0 1 5.641 3.162l-5.85 13.344Z" fill="#0fc3ed"/>
            </g>
            <g data-name="Group 3624" opacity=".7">
              <path data-name="Path 1857" d="M31.974 39.899a12.887 12.887 0 0 1 13.567-4.817 13.529 13.529 0 0 1 4.687 2.379l1.389-3.168a13.868 13.868 0 0 0-5.641-3.162 12.888 12.888 0 0 0-13.567 4.816 32.22 32.22 0 0 0-5.322 10.956l.887.035a31.848 31.848 0 0 1 4-7.039Z" fill="#fff"/>
            </g>
            <g data-name="Group 3625">
              <path data-name="Path 1858" d="M45.772 49.613h-.078l-18.68-.735a1.974 1.974 0 0 1-1.493-.775 1.975 1.975 0 0 1-.355-1.644 34.063 34.063 0 0 1 5.674-11.707 14.778 14.778 0 0 1 15.663-5.526 15.9 15.9 0 0 1 6.44 3.6 1.974 1.974 0 0 1 .487 2.262l-5.849 13.344a1.977 1.977 0 0 1-1.809 1.181ZM29.746 45.03l14.757.58 4.706-10.735a11.512 11.512 0 0 0-3.752-1.839 10.844 10.844 0 0 0-11.472 4.108 30.472 30.472 0 0 0-4.239 7.886Z" fill="#371a45"/>
            </g>
          </g>
          <g data-name="Group 3631">
            <g data-name="Group 3627">
              <path data-name="Path 1859" d="M22.25 88.658S-2.306 87.67 2.634 62.691c4.561-23.069 30.229-14.96 30.229-14.96s-7.414 7.433-10.613 40.927Z" fill="#0fc3ed"/>
            </g>
            <g data-name="Group 3628" opacity=".3">
              <path data-name="Path 1860" d="M22.689 75.925S6.183 75.257 2.961 61.247c-.117.469-.229.946-.327 1.444C-2.306 87.67 22.25 88.658 22.25 88.658c3.2-33.494 10.613-40.927 10.613-40.927a33.322 33.322 0 0 0-4.948-1.036c-1.917 6.255-3.922 15.576-5.226 29.23Z" fill="#371a45"/>
            </g>
            <g data-name="Group 3629" opacity=".7">
              <path data-name="Path 1861" d="M3.073 67.081c3.639-18.406 20.715-16.964 27.469-15.629a15.455 15.455 0 0 1 2.321-3.721S7.195 39.622 2.634 62.691a27.39 27.39 0 0 0-.217 10.821 32.138 32.138 0 0 1 .656-6.431Z" fill="#fff"/>
            </g>
            <g data-name="Group 3630">
              <path data-name="Path 1862" d="M22.251 90.634h-.08c-.473-.019-11.638-.558-17.989-8.612-3.917-4.969-5.09-11.6-3.486-19.713 1.353-6.848 4.593-11.832 9.629-14.815 9.745-5.773 22.591-1.816 23.133-1.645a1.976 1.976 0 0 1 1.324 1.414 1.975 1.975 0 0 1-.52 1.866c-.048.052-7 7.8-10.045 39.719a1.977 1.977 0 0 1-1.966 1.786Zm.76-42.3a20.966 20.966 0 0 0-10.688 2.57c-4.018 2.387-6.626 6.482-7.751 12.173-1.37 6.927-.457 12.478 2.713 16.5 3.847 4.878 10.105 6.424 13.2 6.9 2.348-22.64 6.682-33.145 9.148-37.488a35.327 35.327 0 0 0-6.622-.658Z" fill="#371a45"/>
            </g>
          </g>
          <g data-name="Group 3635">
            <g data-name="Group 3632">
              <path data-name="Path 1863" d="M32.228 98.819s-21.639 0-13.924-33.87c6.286-27.6 23.995-24.383 30.792-22.012-.005 0-12.168 14.861-16.868 55.882Z" fill="#fff"/>
            </g>
            <g data-name="Group 3633" opacity=".3">
              <path data-name="Path 1864" d="M19.289 61.157a61.152 61.152 0 0 0-.99 3.792c-7.715 33.87 13.924 33.87 13.924 33.87a219.245 219.245 0 0 1 2.378-15.815c-2.056-.112-15.853-1.621-15.312-21.847Z" fill="#371a45"/>
            </g>
            <g data-name="Group 3634">
              <path data-name="Path 1865" d="M32.228 100.795a17.511 17.511 0 0 1-12.817-6.526c-5.065-6.348-6.086-16.361-3.034-29.759 2.555-11.216 7.252-18.785 13.96-22.5 7.436-4.117 15.352-2.356 19.409-.941a1.975 1.975 0 0 1 1.251 1.33 1.974 1.974 0 0 1-.373 1.787c-.114.142-11.871 15.074-16.433 54.856a1.976 1.976 0 0 1-1.963 1.753Zm8.358-57.387a17.028 17.028 0 0 0-8.335 2.061c-5.683 3.145-9.727 9.846-12.021 19.918-2.733 12-1.948 21.132 2.27 26.418a13.576 13.576 0 0 0 8 4.826c3.84-31.27 11.928-47.011 15.421-52.569a23.109 23.109 0 0 0-5.34-.654Z" fill="#371a45"/>
            </g>
          </g>
        </g>
        <g data-name="Group 3650">
          <g data-name="Group 3640">
            <g data-name="Group 3637">
              <path data-name="Path 1866" d="M187.365 46.903a32.234 32.234 0 0 0-5.322-10.955 12.889 12.889 0 0 0-13.568-4.817 13.865 13.865 0 0 0-5.64 3.162l5.849 13.344Z" fill="#0fc3ed"/>
            </g>
            <g data-name="Group 3638" opacity=".7">
              <path data-name="Path 1867" d="M182.482 39.899a12.889 12.889 0 0 0-13.568-4.817 13.537 13.537 0 0 0-4.691 2.379l-1.388-3.168a13.865 13.865 0 0 1 5.64-3.162 12.89 12.89 0 0 1 13.568 4.816 32.242 32.242 0 0 1 5.322 10.956l-.888.035a31.8 31.8 0 0 0-3.995-7.039Z" fill="#fff"/>
            </g>
            <g data-name="Group 3639">
              <path data-name="Path 1868" d="M168.684 49.613a1.977 1.977 0 0 1-1.809-1.182l-5.85-13.344a1.976 1.976 0 0 1 .488-2.262 15.9 15.9 0 0 1 6.439-3.6 14.779 14.779 0 0 1 15.663 5.526 34.055 34.055 0 0 1 5.675 11.707 1.978 1.978 0 0 1-.355 1.644 1.977 1.977 0 0 1-1.493.775l-18.68.735Zm-3.437-14.738 4.706 10.735 14.757-.58a30.5 30.5 0 0 0-4.239-7.886 10.846 10.846 0 0 0-11.473-4.108 11.507 11.507 0 0 0-3.751 1.839Z" fill="#371a45"/>
            </g>
          </g>
          <g data-name="Group 3645">
            <g data-name="Group 3641">
              <path data-name="Path 1869" d="M192.205 88.658s24.556-.988 19.617-25.967c-4.562-23.069-30.23-14.96-30.23-14.96s7.415 7.433 10.613 40.927Z" fill="#0fc3ed"/>
            </g>
            <g data-name="Group 3642" opacity=".3">
              <path data-name="Path 1870" d="M191.766 75.925s16.507-.668 19.729-14.678c.117.469.229.946.327 1.444 4.939 24.979-19.617 25.967-19.617 25.967-3.2-33.494-10.613-40.927-10.613-40.927a33.357 33.357 0 0 1 4.949-1.036c1.917 6.255 3.921 15.576 5.225 29.23Z" fill="#371a45"/>
            </g>
            <g data-name="Group 3643" opacity=".7">
              <path data-name="Path 1871" d="M211.383 67.081c-3.64-18.406-20.715-16.964-27.469-15.629a15.432 15.432 0 0 0-2.322-3.721s25.668-8.109 30.23 14.96a27.409 27.409 0 0 1 .217 10.821 32.139 32.139 0 0 0-.656-6.431Z" fill="#fff"/>
            </g>
            <g data-name="Group 3644">
              <path data-name="Path 1872" d="M192.204 90.634a1.976 1.976 0 0 1-1.965-1.788c-3.048-31.915-10-39.667-10.068-39.742a1.95 1.95 0 0 1-.509-1.854 1.977 1.977 0 0 1 1.335-1.4c.542-.17 13.388-4.128 23.134 1.645 5.035 2.983 8.275 7.967 9.629 14.815 1.6 8.112.431 14.744-3.486 19.713-6.351 8.054-17.517 8.593-17.989 8.612Zm-7.376-41.646c2.467 4.342 6.8 14.847 9.148 37.483 3.1-.488 9.39-2.05 13.214-6.919 3.157-4.019 4.065-9.563 2.7-16.478-1.125-5.691-3.733-9.786-7.751-12.173-5.836-3.462-13.385-2.674-17.311-1.913Z" fill="#371a45"/>
            </g>
          </g>
          <g data-name="Group 3649">
            <g data-name="Group 3646">
              <path data-name="Path 1873" d="M182.233 98.819s21.639 0 13.924-33.87c-6.286-27.6-24-24.383-30.792-22.012 0 0 12.163 14.861 16.868 55.882Z" fill="#fff"/>
            </g>
            <g data-name="Group 3647" opacity=".3">
              <path data-name="Path 1874" d="M195.166 61.157c.355 1.2.687 2.456.991 3.792 7.715 33.87-13.924 33.87-13.924 33.87a218.66 218.66 0 0 0-2.379-15.815c2.056-.112 15.854-1.621 15.312-21.847Z" fill="#371a45"/>
            </g>
            <g data-name="Group 3648">
              <path data-name="Path 1875" d="M182.228 100.795a1.975 1.975 0 0 1-1.962-1.751c-4.563-39.782-16.319-54.714-16.437-54.86a1.98 1.98 0 0 1-.366-1.786 1.978 1.978 0 0 1 1.247-1.327c4.057-1.415 11.974-3.176 19.409.941 6.709 3.713 11.406 11.282 13.961 22.5 3.051 13.4 2.031 23.411-3.035 29.759a17.511 17.511 0 0 1-12.817 6.524Zm-13.69-56.733c3.493 5.558 11.581 21.3 15.421 52.572a13.532 13.532 0 0 0 8.04-4.883c4.18-5.293 4.951-14.409 2.228-26.364-2.295-10.072-6.339-16.773-12.021-19.918-4.821-2.671-10.009-2.28-13.664-1.407Z" fill="#371a45"/>
            </g>
          </g>
        </g>
        <g data-name="Group 3667">
          <g data-name="Group 3651">
            <path data-name="Path 1876" d="M107.365 156.963c-80.137 0-82.078-31.691-79.742-44.156.136-.725.285-1.388.435-1.972a23.984 23.984 0 0 0 .781-6.66c-.478-17.426 2.042-90.877 78.526-90.877s79 73.451 78.525 90.877a24.023 24.023 0 0 0 .782 6.66c2.731 10.643 5.488 46.128-79.307 46.128Z" fill="#fff"/>
          </g>
          <g data-name="Group 3652">
            <path data-name="Path 1877" d="M65.469 105.818a10.063 10.063 0 0 1 1.631-2.768 12.772 12.772 0 0 1 2.339-2.2 12.171 12.171 0 0 1 6.4-2.31 11.387 11.387 0 0 1 3.593.384c.288.089.576.177.86.273.277.111.551.228.821.353a10.641 10.641 0 0 1 1.526.866 10.363 10.363 0 0 1 4 5.111 1.425 1.425 0 0 1-.889 1.81 1.422 1.422 0 0 1-.989-.025l-.065-.026c-1.8-.722-3.291-1.391-4.686-1.815a14.085 14.085 0 0 0-3.953-.626 16.914 16.914 0 0 0-4.294.6c-1.556.376-3.224.98-5.04 1.545l-.114.036a.921.921 0 0 1-1.153-.606.915.915 0 0 1 .013-.602Z" fill="#371a45"/>
          </g>
          <g data-name="Group 3653">
            <path data-name="Path 1878" d="M148.012 106.987c-1.816-.565-3.485-1.169-5.04-1.545a16.921 16.921 0 0 0-4.295-.6 14.078 14.078 0 0 0-3.952.626c-1.395.424-2.883 1.093-4.686 1.815l-.064.025a1.426 1.426 0 0 1-1.854-.794 1.421 1.421 0 0 1-.026-.99 10.359 10.359 0 0 1 4-5.111 10.575 10.575 0 0 1 1.525-.866c.27-.125.544-.242.822-.353.284-.1.572-.184.86-.273a11.387 11.387 0 0 1 3.593-.384 12.168 12.168 0 0 1 6.395 2.31 12.746 12.746 0 0 1 2.34 2.2 10.063 10.063 0 0 1 1.631 2.768.921.921 0 0 1-.536 1.187.92.92 0 0 1-.6.018Z" fill="#371a45"/>
          </g>
          <g data-name="Group 3654">
            <path data-name="Path 1879" d="M186.672 110.835a24.023 24.023 0 0 1-.782-6.66c.479-17.426-2.041-90.877-78.525-90.877s-79 73.451-78.526 90.877a23.984 23.984 0 0 1-.781 6.66c-.15.584-.3 1.247-.435 1.972 7.42 1.9 19.314 2.059 20.6-15.683 1.831-25.413 22.015-25.4 22.015-25.4s29.583-2.094 24.67 50.746h24.92c-4.913-52.84 24.671-50.746 24.671-50.746s20.184-.013 22.014 25.4c1.282 17.742 13.177 17.58 20.6 15.683a36.11 36.11 0 0 0-.441-1.972Z" fill="#6fa3d2"/>
          </g>
          <g data-name="Group 3655" opacity=".7">
            <path data-name="Path 1880" d="M107.228 13.299c-75.556.139-78.8 71.821-78.375 90.36.373-20.284 6.179-68.25 51.568-81.867a1.008 1.008 0 0 1 1 .227c1.757 1.746 6.9 2.545 12.807 1.809 6.1-.761 11.015-2.913 12.088-5.112a1.027 1.027 0 0 1 .916-.588h.007c70.111-.13 78.184 61.573 78.7 85.281.358-18.475-3.1-90.25-78.711-90.11Z" fill="#fff"/>
          </g>
          <g data-name="Group 3656" opacity=".3">
            <path data-name="Path 1881" d="M186.672 110.835a24.023 24.023 0 0 1-.782-6.66c.439-15.97-1.644-78.991-60.864-89.411 55.114 10.363 57.06 69.41 56.648 84.437a22.687 22.687 0 0 0 .739 6.3c2.584 10.071 5.194 42.145-75.048 42.145-75.834 0-77.67-28.484-75.46-40.28.129-.686.27-1.313.411-1.865a22.725 22.725 0 0 0 .74-6.3c-.413-15.027 1.534-74.074 56.648-84.437-59.221 10.419-61.3 73.441-60.865 89.411a23.984 23.984 0 0 1-.781 6.66c-.15.584-.3 1.247-.435 1.972-2.336 12.465-.395 44.156 79.742 44.156 84.795 0 82.038-35.485 79.307-46.128Z" fill="#371a45"/>
          </g>
          <g data-name="Group 3661">
            <g data-name="Group 3657">
              <path data-name="Path 1882" d="M124.928 120.17s-.6 14.519-17.562 22.682c-8.676-4.176-13.071-10.011-15.293-14.718a22.735 22.735 0 0 1-2.27-7.964Z" fill="#f4c968"/>
            </g>
            <g data-name="Group 3658" opacity=".3">
              <path data-name="Path 1883" d="M107.365 120.17H89.802a22.735 22.735 0 0 0 2.27 7.964 41.1 41.1 0 0 0 15.293 5.686 41.089 41.089 0 0 0 15.292-5.686 22.708 22.708 0 0 0 2.27-7.964Z" fill="#371a45"/>
            </g>
            <g data-name="Group 3659">
              <path data-name="Path 1884" d="M107.365 119.894h12.463s-.423 10.3-12.462 16.092c-12.039-5.792-12.462-16.092-12.462-16.092Z" fill="#371a45"/>
            </g>
            <g data-name="Group 3660">
              <path data-name="Path 1885" d="M107.365 144.826a1.968 1.968 0 0 1-.857-.2c-17.83-8.577-18.653-23.737-18.68-24.378a1.98 1.98 0 0 1 .549-1.449 1.974 1.974 0 0 1 1.425-.607h35.126a1.978 1.978 0 0 1 1.426.607 1.98 1.98 0 0 1 .548 1.449c-.026.641-.849 15.8-18.68 24.378a1.963 1.963 0 0 1-.857.2Zm-15.29-22.676c.827 3.95 3.907 12.676 15.29 18.5 11.378-5.82 14.46-14.543 15.289-18.5Z" fill="#371a45"/>
            </g>
          </g>
          <g data-name="Group 3665">
            <g data-name="Group 3662">
              <path data-name="Path 1886" d="M107.365 125.163c10.851-.941 17.562-4.962 17.562-4.962-4.234-6.749-17.562-10.562-17.562-10.562s-13.329 3.811-17.563 10.562c0 0 6.712 4.021 17.563 4.962Z" fill="#f4c968"/>
            </g>
            <g data-name="Group 3663" opacity=".7">
              <path data-name="Path 1887" d="M107.365 113.59s9.709 2.781 15.185 7.793a24.205 24.205 0 0 0 2.377-1.182c-4.234-6.749-17.562-10.562-17.562-10.562s-13.329 3.811-17.563 10.562a24.356 24.356 0 0 0 2.377 1.182c5.477-5.012 15.186-7.793 15.186-7.793Z" fill="#fff"/>
            </g>
            <g data-name="Group 3664">
              <path data-name="Path 1888" d="M107.365 127.138c-.057 0-.114 0-.171-.007-11.176-.969-18.117-5.061-18.407-5.235a1.976 1.976 0 0 1-.906-1.234 1.972 1.972 0 0 1 .248-1.511c4.583-7.306 18.118-11.248 18.692-11.412a1.969 1.969 0 0 1 1.087 0c.574.164 14.11 4.106 18.693 11.412a1.976 1.976 0 0 1 .247 1.511 1.972 1.972 0 0 1-.906 1.234c-.289.174-7.23 4.266-18.407 5.235a1.917 1.917 0 0 1-.17.007Zm-14.513-7.623a46.322 46.322 0 0 0 14.513 3.664 46.3 46.3 0 0 0 14.5-3.661c-3.781-3.894-11.1-6.766-14.5-7.816-2.161.687-10.36 3.49-14.513 7.813Z" fill="#371a45"/>
            </g>
          </g>
          <g data-name="Group 3666">
            <path data-name="Path 1889" d="M107.365 158.939c-39.038 0-64.595-7.432-75.961-22.087a30.3 30.3 0 0 1-5.258-26.509 22.155 22.155 0 0 0 .72-6.114c-.3-10.8.536-47.881 23.7-71.685 13.7-14.083 32.812-21.223 56.8-21.223s43.1 7.14 56.8 21.223c23.16 23.8 23.992 60.886 23.7 71.684a22.15 22.15 0 0 0 .721 6.115 30.3 30.3 0 0 1-5.259 26.507c-11.369 14.658-36.926 22.089-75.963 22.089Zm0-143.667c-22.884 0-41.042 6.738-53.971 20.028-22.08 22.694-22.864 58.413-22.578 68.82a26.09 26.09 0 0 1-.843 7.206 26.415 26.415 0 0 0 4.553 23.1c4.644 5.987 12.192 10.753 22.436 14.164 12.739 4.242 29.7 6.393 50.4 6.393s37.663-2.151 50.4-6.393c10.244-3.411 17.793-8.177 22.436-14.164a26.413 26.413 0 0 0 4.554-23.1 26.043 26.043 0 0 1-.843-7.206c.285-10.407-.5-46.126-22.578-68.82-12.925-13.29-31.083-20.028-53.966-20.028Z" fill="#371a45"/>
          </g>
        </g>
      </g>
    </g>
  </g>
</svg>
