<svg xmlns="http://www.w3.org/2000/svg" width="297.022" height="214">
  <g data-name="Group 4239">
    <path data-name="Path 2267" d="M258.648 67.016a38.244 38.244 0 0 0-14.164 2.7 41.64 41.64 0 0 0 .091-2.7 40.955 40.955 0 0 0-64.676-33.382 50.2 50.2 0 0 0-96.061 4.308 41.573 41.573 0 0 0-52.58 46.072C12.967 89.377.001 102.788.001 118.485c0 9.041 4.253 17.266 10.841 23.3 16.8 0 238.318.253 257.691.253 7.66-3.9 15.449-7.159 20.82-14.062a36.871 36.871 0 0 0 7.668-22.585 38.374 38.374 0 0 0-38.373-38.375Z" fill="#fff" opacity=".7"/>
    <text transform="translate(149 201)" fill="#6fa3d2" font-size="32" font-family="CoconNextArabic-Regular, Cocon® Next Arabic"><tspan x="-58.576" y="0">المستوى</tspan></text>
    <g data-name="Group 4231">
      <text data-name="2" transform="translate(109 114)" fill="#6fa3d2" font-size="48" font-family="CoconNextArabic-Regular, Cocon® Next Arabic"><tspan x="-12.72" y="0">2</tspan></text>
    </g>
    <path d="M202.997 114.6h-44.015V83.63a1.63 1.63 0 0 0-1.63-1.63h-3.261a1.63 1.63 0 0 0-1.63 1.63v34.235a3.261 3.261 0 0 0 3.26 3.26h47.276a1.63 1.63 0 0 0 1.63-1.63v-3.26a1.63 1.63 0 0 0-1.63-1.635Zm-3.26-29.34h-12.029a2.445 2.445 0 0 0-1.729 4.174l3.3 3.3-7.476 7.477-7.476-7.476a3.259 3.259 0 0 0-4.61 0l-7 7a1.63 1.63 0 0 0 0 2.306l2.3 2.3a1.63 1.63 0 0 0 2.306 0l4.693-4.694 7.476 7.476a3.259 3.259 0 0 0 4.61 0l9.781-9.781 3.3 3.3a2.445 2.445 0 0 0 4.174-1.729V86.891a1.628 1.628 0 0 0-1.62-1.631Z" fill="#6fa3d2"/>
  </g>
</svg>
