<svg xmlns="http://www.w3.org/2000/svg" width="444" height="275.256">
  <g data-name="Group 4254">
    <g data-name="Group 4255" transform="translate(-231 -263.744)" opacity=".4" fill="#ffa4d4">
      <rect data-name="Rectangle 775" width="444" height="241" rx="30" transform="translate(231 298)"/>
      <path data-name="Path 2283" d="M337.797 298.543a15.792 15.792 0 0 0-5.848 1.115c.024-.369.037-.74.037-1.115a16.911 16.911 0 0 0-26.705-13.784 20.726 20.726 0 0 0-39.664 1.779 17.165 17.165 0 0 0-21.711 19.023c-7.553 2.214-12.906 7.752-12.906 14.233a13.112 13.112 0 0 0 4.477 9.621c3.267 2.992 6.873 3.743 11.067 4.7 9.911 2.269 19.868 4.417 29.959 5.725q1.966.255 3.938.466c13.251 1.412 26.81 1.191 39.7-2.2a109.98 109.98 0 0 0 21.742-8.586c3.163-1.61 6.379-2.956 8.6-5.806a15.223 15.223 0 0 0 3.166-9.326 15.845 15.845 0 0 0-15.852-15.845Z"/>
      <path data-name="Path 2284" d="M429.797 300.543a15.792 15.792 0 0 0-5.848 1.115c.024-.369.037-.74.037-1.115a16.911 16.911 0 0 0-26.705-13.784 20.726 20.726 0 0 0-39.664 1.779 17.165 17.165 0 0 0-21.711 19.023c-7.553 2.214-12.906 7.752-12.906 14.233a13.112 13.112 0 0 0 4.477 9.621c3.267 2.992 6.873 3.743 11.067 4.7 9.911 2.269 19.868 4.417 29.959 5.725q1.966.255 3.938.466c13.251 1.412 26.81 1.191 39.7-2.2a109.98 109.98 0 0 0 21.742-8.586c3.163-1.61 6.379-2.956 8.6-5.806a15.223 15.223 0 0 0 3.166-9.326 15.845 15.845 0 0 0-15.852-15.845Z"/>
      <path data-name="Path 2285" d="M521.797 298.543a15.792 15.792 0 0 0-5.848 1.115c.024-.369.037-.74.037-1.115a16.911 16.911 0 0 0-26.705-13.784 20.726 20.726 0 0 0-39.664 1.779 17.165 17.165 0 0 0-21.711 19.023c-7.553 2.214-12.906 7.752-12.906 14.233a13.112 13.112 0 0 0 4.477 9.621c3.267 2.992 6.873 3.743 11.067 4.7 9.911 2.269 19.868 4.417 29.959 5.725q1.966.255 3.938.466c13.251 1.412 26.81 1.191 39.7-2.2a109.98 109.98 0 0 0 21.742-8.586c3.163-1.61 6.379-2.956 8.6-5.806a15.223 15.223 0 0 0 3.166-9.326 15.845 15.845 0 0 0-15.852-15.845Z"/>
      <path data-name="Path 2286" d="M603.797 291.415a15.792 15.792 0 0 0-5.848 1.115c.024-.369.037-.74.037-1.115a16.911 16.911 0 0 0-26.705-13.784 20.726 20.726 0 0 0-39.664 1.779 17.165 17.165 0 0 0-21.711 19.023c-7.553 2.214-12.906 7.752-12.906 14.233a13.112 13.112 0 0 0 4.477 9.621c3.267 2.992 6.873 3.743 11.067 4.7 9.911 2.269 19.868 4.417 29.959 5.725q1.966.255 3.938.466c13.251 1.412 26.81 1.191 39.7-2.2a109.98 109.98 0 0 0 21.742-8.586c3.163-1.61 6.379-2.956 8.6-5.806a15.223 15.223 0 0 0 3.166-9.326 15.845 15.845 0 0 0-15.852-15.845Z"/>
      <path data-name="Path 2287" d="M659.155 294.415a15.792 15.792 0 0 0-5.848 1.115c.024-.369.037-.74.037-1.115a16.911 16.911 0 0 0-26.705-13.784 20.726 20.726 0 0 0-39.664 1.779 17.165 17.165 0 0 0-21.711 19.023c-7.553 2.214-12.906 7.752-12.906 14.233a13.112 13.112 0 0 0 4.477 9.621c3.267 2.992 6.873 3.743 11.067 4.7 9.911 2.269 19.868 4.417 29.959 5.725q1.966.255 3.938.466c13.251 1.412 26.81 1.191 39.7-2.2a109.98 109.98 0 0 0 21.742-8.586c3.163-1.61 11.763 11.714 11.763 11.714v-26.845a15.845 15.845 0 0 0-15.849-15.846Z"/>
    </g>
    <path data-name="Path 2282" d="M142.73 155.496a17.616 17.616 0 0 0-6.524 1.244 19 19 0 0 0 .042-1.244 18.864 18.864 0 0 0-29.79-15.376 23.12 23.12 0 0 0-44.246 1.984 19.148 19.148 0 0 0-24.22 21.221c-8.425 2.47-14.4 8.647-14.4 15.878a14.627 14.627 0 0 0 4.994 10.732c3.645 3.338 7.667 4.175 12.345 5.246 11.056 2.531 22.163 4.927 33.42 6.386q2.193.284 4.393.52c14.782 1.575 29.907 1.329 44.282-2.458a122.682 122.682 0 0 0 24.254-9.577c3.528-1.8 7.116-3.3 9.59-6.477a16.982 16.982 0 0 0 3.532-10.4 17.675 17.675 0 0 0-17.672-17.679Z" fill="none" stroke="#ee97c0"/>
    <g data-name="girl (1)">
      <path data-name="Path 1643" d="M91.739 90.949h-.017c-20.085 0-39.751 15.172-39.751 35.575 0 27.03 14.648 39.76 14.648 39.76a50.085 50.085 0 0 0-3.926 11.765h10.978a64.722 64.722 0 0 1-.771-11.77s56.5-10.289 56.5-39.76c-.002-20.081-17.575-35.57-37.661-35.57Z" fill="#ff9656"/>
      <path data-name="Path 1644" d="M109.281 95.113a39.1 39.1 0 0 0-17.542-4.164h-.016c-20.086 0-39.752 15.172-39.752 35.575 0 27.03 14.648 39.76 14.648 39.76a50.046 50.046 0 0 0-3.93 11.77h10.982a64.692 64.692 0 0 1-.771-11.77 137 137 0 0 0 14.056-3.58l-28.7-28.318s41.56-14.589 51.025-39.273Z" fill="#ef8c56"/>
      <path data-name="Path 1645" d="m131.331 199.24-.4-1.367a1.38 1.38 0 0 0-1.5-.981l-1.4-10.464a10.684 10.684 0 0 0-6.1-8.177l-4.11-2.055c-.666-.333-1.174.1-1.663.639l-9.021-3.319a4.185 4.185 0 0 1-2.862-3.97v-6.749l9.014-3.756a12.556 12.556 0 0 0 7.727-11.59v-2.093a6.278 6.278 0 0 0 0-12.556v-4.185c0-5.779-4.685-14.648-10.463-14.648H72.898c-5.779 0-10.463 8.87-10.463 14.648v4.185a6.278 6.278 0 0 0 0 12.556v2.093a12.556 12.556 0 0 0 7.727 11.59l9.014 3.756v6.749a4.185 4.185 0 0 1-2.862 3.97l-9.021 3.319c-.489-.544-1-.972-1.663-.639l-4.11 2.055a10.684 10.684 0 0 0-6.1 8.177l-1.4 10.464a1.38 1.38 0 0 0-1.5.981l-.4 1.367a1.381 1.381 0 0 0 .939 1.712l3.086.9v6.283a4.185 4.185 0 0 0 4.185 4.185h62.779a4.185 4.185 0 0 0 4.185-4.185v-6.283l3.086-.9a1.381 1.381 0 0 0 .951-1.712Z" fill="#ffd7a3"/>
      <path data-name="Path 1646" d="m104.286 162.577-25.111.043v6.926a4.184 4.184 0 0 1-2.028 3.584c17.506 3.023 27.139-10.552 27.139-10.553Z" fill="#fdc88e"/>
      <g data-name="Group 2518">
        <path data-name="Path 1647" d="M128.038 186.427a10.684 10.684 0 0 0-6.1-8.177l-4.106-2.055c-.76-.38-1.314.232-1.869.875a74.417 74.417 0 0 1-24.231 18.511 74.417 74.417 0 0 1-24.231-18.511c-.555-.643-1.11-1.255-1.869-.875l-4.11 2.055a10.684 10.684 0 0 0-6.1 8.177l-1.7 12.774c5.528 1.9 14.991 4.748 14.991 4.748v8.371h46.038v-8.371s9.463-2.845 14.992-4.748Z" fill="#ee97c0"/>
      </g>
      <path data-name="Path 1648" d="M121.027 132.802v-4.185c0-5.779-4.685-14.648-10.463-14.648H72.897c-5.779 0-10.463 8.87-10.463 14.648v4.184a6.278 6.278 0 0 0 0 12.556v2.094a12.556 12.556 0 0 0 7.727 11.59l13.521 5.634a20.925 20.925 0 0 0 8.049 1.61 20.928 20.928 0 0 0 8.049-1.61l13.522-5.634a12.556 12.556 0 0 0 7.727-11.59v-2.093a6.278 6.278 0 1 0 0-12.555Z" fill="#ffe1b2"/>
      <g data-name="Group 2521">
        <g data-name="Group 2520">
          <path data-name="Path 1650" d="M91.732 155.878a17.43 17.43 0 0 1-9.548-2.512 2.092 2.092 0 1 1 2.354-3.46 15.371 15.371 0 0 0 14.387 0 2.092 2.092 0 1 1 2.354 3.46 17.43 17.43 0 0 1-9.547 2.512Z" fill="#e4b07b"/>
        </g>
      </g>
      <path data-name="Path 1651" d="M62.434 132.802a6.278 6.278 0 0 0 0 12.556v2.093a12.556 12.556 0 0 0 7.726 11.59l13.521 5.634a20.961 20.961 0 0 0 2.021.719 87.337 87.337 0 0 1-12.284-10.691 9.809 9.809 0 0 1-2.614-6.7v-11.016s34.877-4.36 43.945-18.834a10.357 10.357 0 0 0 1.119-2.31c-20.405 11.725-53.434 16.959-53.434 16.959Z" fill="#ffd7a3"/>
      <g data-name="Group 2522">
        <path data-name="Path 1652" d="M68.661 203.312a12.532 12.532 0 0 0-2.459-6.894l-9.824-13.1a10.2 10.2 0 0 0-.953 3.109l-1.659 12.441Z" fill="#ffa4d4"/>
      </g>
      <g data-name="Group 2523">
        <path data-name="Path 1653" d="M52.131 199.24a1.381 1.381 0 0 0 .939 1.712l15.641 4.562v-1.564a12.509 12.509 0 0 0-.382-2.907l-14.087-4.109a1.38 1.38 0 0 0-1.712.939Z" fill="#ee97c0"/>
      </g>
      <g data-name="Group 2524">
        <path data-name="Path 1654" d="M114.804 203.312a12.532 12.532 0 0 1 2.459-6.894l9.824-13.1a10.2 10.2 0 0 1 .953 3.109l1.659 12.441Z" fill="#ffa4d4"/>
      </g>
      <g data-name="Group 2525">
        <path data-name="Path 1655" d="M131.331 199.24a1.381 1.381 0 0 1-.939 1.712l-15.642 4.562v-1.564a12.5 12.5 0 0 1 .382-2.907l14.087-4.109a1.38 1.38 0 0 1 1.712.939Z" fill="#ee97c0"/>
      </g>
      <g data-name="Group 2526">
        <path data-name="Path 1656" d="M72.897 168.376h-6.278a2.093 2.093 0 0 1-2.093-2.093 2.093 2.093 0 0 1 2.094-2.092h6.278a2.093 2.093 0 0 1 2.093 2.093 2.093 2.093 0 0 1-2.094 2.092Z" fill="#ffa4d4"/>
      </g>
      <path data-name="Path 1657" d="M58.249 113.186v21.2c32.669-3.89 48.139-10.775 55.189-15.464.52 7.667.381 19.173-3.2 30.621 0 0 12.525-17.469 10.584-36.36Z" fill="#ff9656"/>
      <path data-name="Path 1659" d="M58.249 113.186v21.2s21.766-7.635 37.388-21.2Z" fill="#ef8c56"/>
    </g>
    <g data-name="Group 4420" fill="#0f110c" font-size="24" font-family="CoconNextArabic-Regular, Cocon® Next Arabic">
      <text transform="translate(404 94)"><tspan x="-29.664" y="0">ريم</tspan></text>
      <text data-name="المستوى 3" transform="translate(404 138)"><tspan x="-112.056" y="0">3</tspan><tspan y="0" xml:space="preserve">المستوى  </tspan></text>
      <text data-name="عدد النقاط 23" transform="translate(404 182)"><tspan x="-134.256" y="0">23</tspan><tspan y="0" xml:space="preserve">عدد النقاط  </tspan></text>
      <text data-name="أيام الحماس 2" transform="translate(404 227)"><tspan x="-131.232" y="0">2</tspan><tspan y="0">أيام الحماس </tspan></text>
    </g>
  </g>
</svg>
