<svg xmlns="http://www.w3.org/2000/svg" width="444" height="275.256">
  <g data-name="Group 4253" transform="translate(-231 -263.744)">
    <rect data-name="Rectangle 775" width="444" height="241" rx="30" transform="translate(231 298)" fill="#e4f5ff"/>
    <path data-name="Path 2282" d="M373.73 419.496a17.616 17.616 0 0 0-6.524 1.244 19 19 0 0 0 .042-1.244 18.864 18.864 0 0 0-29.79-15.376 23.12 23.12 0 0 0-44.246 1.984 19.148 19.148 0 0 0-24.22 21.221c-8.425 2.47-14.4 8.647-14.4 15.878a14.627 14.627 0 0 0 4.994 10.732c3.645 3.338 7.667 4.175 12.345 5.246 11.056 2.531 22.163 4.927 33.42 6.386q2.193.284 4.393.52c14.782 1.575 29.907 1.329 44.282-2.458a122.682 122.682 0 0 0 24.254-9.577c3.528-1.8 7.116-3.3 9.59-6.477a16.982 16.982 0 0 0 3.532-10.4 17.675 17.675 0 0 0-17.672-17.679Z" fill="none" stroke="#6fa3d2"/>
    <path data-name="Path 2283" d="M337.797 298.543a15.792 15.792 0 0 0-5.848 1.115c.024-.369.037-.74.037-1.115a16.911 16.911 0 0 0-26.705-13.784 20.726 20.726 0 0 0-39.664 1.779 17.165 17.165 0 0 0-21.711 19.023c-7.553 2.214-12.906 7.752-12.906 14.233a13.112 13.112 0 0 0 4.477 9.621c3.267 2.992 6.873 3.743 11.067 4.7 9.911 2.269 19.868 4.417 29.959 5.725q1.966.255 3.938.466c13.251 1.412 26.81 1.191 39.7-2.2a109.98 109.98 0 0 0 21.742-8.586c3.163-1.61 6.379-2.956 8.6-5.806a15.223 15.223 0 0 0 3.166-9.326 15.845 15.845 0 0 0-15.852-15.845Z" fill="#e4f5ff"/>
    <path data-name="Path 2284" d="M429.797 300.543a15.792 15.792 0 0 0-5.848 1.115c.024-.369.037-.74.037-1.115a16.911 16.911 0 0 0-26.705-13.784 20.726 20.726 0 0 0-39.664 1.779 17.165 17.165 0 0 0-21.711 19.023c-7.553 2.214-12.906 7.752-12.906 14.233a13.112 13.112 0 0 0 4.477 9.621c3.267 2.992 6.873 3.743 11.067 4.7 9.911 2.269 19.868 4.417 29.959 5.725q1.966.255 3.938.466c13.251 1.412 26.81 1.191 39.7-2.2a109.98 109.98 0 0 0 21.742-8.586c3.163-1.61 6.379-2.956 8.6-5.806a15.223 15.223 0 0 0 3.166-9.326 15.845 15.845 0 0 0-15.852-15.845Z" fill="#e4f5ff"/>
    <path data-name="Path 2285" d="M521.797 298.543a15.792 15.792 0 0 0-5.848 1.115c.024-.369.037-.74.037-1.115a16.911 16.911 0 0 0-26.705-13.784 20.726 20.726 0 0 0-39.664 1.779 17.165 17.165 0 0 0-21.711 19.023c-7.553 2.214-12.906 7.752-12.906 14.233a13.112 13.112 0 0 0 4.477 9.621c3.267 2.992 6.873 3.743 11.067 4.7 9.911 2.269 19.868 4.417 29.959 5.725q1.966.255 3.938.466c13.251 1.412 26.81 1.191 39.7-2.2a109.98 109.98 0 0 0 21.742-8.586c3.163-1.61 6.379-2.956 8.6-5.806a15.223 15.223 0 0 0 3.166-9.326 15.845 15.845 0 0 0-15.852-15.845Z" fill="#e4f5ff"/>
    <path data-name="Path 2286" d="M603.797 291.415a15.792 15.792 0 0 0-5.848 1.115c.024-.369.037-.74.037-1.115a16.911 16.911 0 0 0-26.705-13.784 20.726 20.726 0 0 0-39.664 1.779 17.165 17.165 0 0 0-21.711 19.023c-7.553 2.214-12.906 7.752-12.906 14.233a13.112 13.112 0 0 0 4.477 9.621c3.267 2.992 6.873 3.743 11.067 4.7 9.911 2.269 19.868 4.417 29.959 5.725q1.966.255 3.938.466c13.251 1.412 26.81 1.191 39.7-2.2a109.98 109.98 0 0 0 21.742-8.586c3.163-1.61 6.379-2.956 8.6-5.806a15.223 15.223 0 0 0 3.166-9.326 15.845 15.845 0 0 0-15.852-15.845Z" fill="#e4f5ff"/>
    <path data-name="Path 2287" d="M659.155 294.415a15.792 15.792 0 0 0-5.848 1.115c.024-.369.037-.74.037-1.115a16.911 16.911 0 0 0-26.705-13.784 20.726 20.726 0 0 0-39.664 1.779 17.165 17.165 0 0 0-21.711 19.023c-7.553 2.214-12.906 7.752-12.906 14.233a13.112 13.112 0 0 0 4.477 9.621c3.267 2.992 6.873 3.743 11.067 4.7 9.911 2.269 19.868 4.417 29.959 5.725q1.966.255 3.938.466c13.251 1.412 26.81 1.191 39.7-2.2a109.98 109.98 0 0 0 21.742-8.586c3.163-1.61 11.763 23.7 11.763 23.7v-38.831a15.845 15.845 0 0 0-15.849-15.846Z" fill="#e4f5ff"/>
    <path data-name="Path 1631" d="m361.403 469.15-2.483-19.863a7.846 7.846 0 0 0-5.3-6.47l-9.574-3.191a3.923 3.923 0 0 0-3.771.7l-2.82-.94a3.923 3.923 0 0 1-2.682-3.722v-6.321l8.449-3.521a11.767 11.767 0 0 0 7.242-10.863V413a5.883 5.883 0 0 0 4.46-9.72c1.665-6.06 6.345-25.231 1.424-33.432l1.958-7.848s-20.6.49-31.383 3.923l3.923-3.923s-27.578 0-33.343 9.806-9.807-.082-9.807 11.769c0 4.337 2.419 15.167 3.458 19.618A5.883 5.883 0 0 0 295.54 413v1.961a11.769 11.769 0 0 0 7.242 10.863l8.449 3.521v6.326a3.923 3.923 0 0 1-2.682 3.722l-2.82.94a3.923 3.923 0 0 0-3.771-.7l-9.574 3.191a7.846 7.846 0 0 0-5.3 6.47l-2.486 19.856a5.884 5.884 0 0 0 5.839 6.614h65.131a5.884 5.884 0 0 0 5.835-6.614Z" fill="#ffd7a3"/>
    <g data-name="Group 2508">
      <path data-name="Path 1632" d="M334.769 429.343h-23.537v6.326a3.888 3.888 0 0 1-1.966 3.349c16.45 2.879 25.503-9.675 25.503-9.675Z" fill="#fdc88e"/>
    </g>
    <g data-name="Group 3286">
      <path data-name="Path 1633" d="M291.617 405.152s-3.923-16.052-3.923-21.576c0-11.85 9.807-11.769 9.807-11.769C303.263 362 330.846 362 330.846 362l-3.923 3.923c10.788-3.433 31.383-3.923 31.383-3.923l-1.961 7.846c5.884 9.807-1.961 35.306-1.961 35.306Z" fill="#734a3e"/>
      <path data-name="Path 1634" d="M330.846 362s-27.583 0-33.343 9.806-9.809-.08-9.809 11.77c0 5.523 3.923 21.576 3.923 21.576s40.777-18.225 66.689-43.152c0 0-20.6.49-31.383 3.923Z" fill="#623f33"/>
      <path data-name="Path 1635" d="M350.455 401.229v-3.923a9.807 9.807 0 0 0-9.8-9.807h-35.308a9.807 9.807 0 0 0-9.807 9.807v3.923a5.885 5.885 0 1 0 0 11.769v1.961a11.769 11.769 0 0 0 7.242 10.863l12.673 5.277a19.613 19.613 0 0 0 7.544 1.509 19.616 19.616 0 0 0 7.544-1.509l12.674-5.281a11.768 11.768 0 0 0 7.238-10.859v-1.96a5.885 5.885 0 1 0 0-11.769Z" fill="#ffe1b2"/>
      <path data-name="Path 1638" d="M323 422.859a16.337 16.337 0 0 1-8.949-2.355 1.961 1.961 0 0 1 2.207-3.243 14.407 14.407 0 0 0 13.485 0 1.961 1.961 0 1 1 2.207 3.243 16.336 16.336 0 0 1-8.95 2.355Z" fill="#e4b07b"/>
    </g>
    <g data-name="Group 2515">
      <path data-name="Path 1639" d="m361.403 469.152-2.483-19.863a7.846 7.846 0 0 0-5.3-6.47l-9.574-3.191a3.859 3.859 0 0 0-4.485 1.522 19.592 19.592 0 0 1-33.114 0 3.859 3.859 0 0 0-4.485-1.522l-9.574 3.191a7.845 7.845 0 0 0-5.3 6.47l-2.49 19.863a5.884 5.884 0 0 0 5.839 6.614h65.131a5.884 5.884 0 0 0 5.835-6.614Z" fill="#6fa3d2"/>
    </g>
    <g data-name="Group 2516">
      <path data-name="Path 1640" d="M288.716 445.403a7.829 7.829 0 0 0-1.635 3.884l-2.483 19.863a5.884 5.884 0 0 0 5.839 6.614h10.987v-12.766a7.847 7.847 0 0 0-1.916-5.137Z" fill="#a6d2fa"/>
    </g>
    <g data-name="Group 2517">
      <path data-name="Path 1641" d="M357.284 445.403a7.829 7.829 0 0 1 1.635 3.884l2.483 19.863a5.884 5.884 0 0 1-5.839 6.614h-10.987v-12.766a7.847 7.847 0 0 1 1.916-5.137Z" fill="#a6d2fa"/>
    </g>
    <path data-name="Path 1642" d="M305.837 421.756a9.2 9.2 0 0 1-2.451-6.283v-22.227c6.243-.468 25.926-2.17 37.268-5.747h-35.306a9.221 9.221 0 0 0-1.961.216v-.016a9.81 9.81 0 0 0-7.846 9.61v3.923a5.885 5.885 0 1 0 0 11.769v1.961a11.769 11.769 0 0 0 7.242 10.863l12.673 5.274a19.645 19.645 0 0 0 1.895.674 81.878 81.878 0 0 1-11.514-10.017Z" fill="#ffd7a3"/>
    <g data-name="Group 4419" fill="#0f110c" font-size="24" font-family="CoconNextArabic-Regular, Cocon® Next Arabic">
      <text transform="translate(635 359)"><tspan x="-45.528" y="0">سامر</tspan></text>
      <text data-name="المستوى 3" transform="translate(635 403)"><tspan x="-112.056" y="0">3</tspan><tspan y="0" xml:space="preserve">المستوى  </tspan></text>
      <text data-name="عدد النقاط 23" transform="translate(635 447)"><tspan x="-134.256" y="0">23</tspan><tspan y="0" xml:space="preserve">عدد النقاط  </tspan></text>
      <text data-name="أيام الحماس 5" transform="translate(635 491)"><tspan x="-131.064" y="0">5</tspan><tspan y="0">أيام الحماس </tspan></text>
    </g>
  </g>
</svg>
